# xmcd
#
# Track frame offsets:
#	150
#	4604
#	17224
#	42618
#	48226
#	70344
#	78415
#	82216
#	99916
#	124965
#	141750
#	163948
#	187627
#	205691
#	222889
#
# Disc length: 3218 seconds
#
# Revision: 11
# Processed by: cddbd v1.5.2PL0 Copyright (c) Steve Scherf et al.
# Submitted via: Jack! The Knife 20 Magnifico
#
DISCID=cb0c900f
DTITLE=Rage - Speak Of The Dead
DYEAR=2006
DGENRE=Metal
TTITLE0=Morituri Te Salutant
TTITLE1=Prelude Of Souls
TTITLE2=Innocent
TTITLE3=Depression
TTITLE4=No Regrets
TTITLE5=Confusion
TTITLE6=Black
TTITLE7=Beauty
TTITLE8=No Fear
TTITLE9=Soul Survivor
TTITLE10=Full Moon
TTITLE11=Kill Your Gods
TTITLE12=Turn My World Around
TTITLE13=Be With Me Or Be Gone
TTITLE14=Speak Of The Dead
EXTD=Rage and Charly Czajkowski
EXTT0=Lingua Mortis
EXTT1=Lingua Mortis
EXTT2=Wagner, Smolski
EXTT3=Lingua Mortis
EXTT4=Wagner, Smolski
EXTT5=Lingua Mortis
EXTT6=Lingua Mortis
EXTT7=Wagner, Smolski
EXTT8=Wagner, Smolski
EXTT9=Peter Wagner
EXTT10=Peter Wagner
EXTT11=Wagner, Smolski
EXTT12=Peter Wagner
EXTT13=Peter Wagner
EXTT14=Peter Wagner
PLAYORDER=
